<?xml version="1.0" ?><svg enable-background="new 0 0 186.9844 186.9864" id="dribbble" version="1.1" viewBox="0 0 186.9844 186.9864" xml:space="preserve" xmlns="http://www.w3.org/2000/svg" xmlns:xlink="http://www.w3.org/1999/xlink"><path d="M157.7304,25.6756l-3.6444-3.4528l-0.1244,0.2104C137.0292,7.9872,115.7824,0,93.4904,0  c-12.122,0-23.9412,2.3579-35.1948,6.9508l-0.0532-0.0544l-2.5256,1.1172C28.1836,20.2012,8.096,44.996,1.9804,74.336L1.332,77.4472  l0.0776,0.036C0.4912,82.7888,0,88.1579,0,93.496c0,27.5476,11.9876,53.2764,32.954,71.1188l-0.036,0.0824l2.4084,1.918  c16.736,13.3264,36.8476,20.3712,58.164,20.3712c11.252,0,22.418-2.0765,33.1876-6.174l2.578-0.9804v-0.116  c31.1589-12.4941,52.4488-40.312,56.7504-73.9932l0.224,0.078l0.3988-5.1776c0.166-2.166,0.3552-4.6213,0.3552-7.1272  C186.9844,67.6408,176.596,43.5548,157.7304,25.6756z M178.9844,93.496c0,0.4768-0.0076,0.9512-0.0215,1.424  c-11.2265-3.3712-22.8357-5.0764-34.5897-5.0764c-10.1452,0-20.2476,1.2856-30.0832,3.8256l-0.0204-0.058l-0.022,0.0064  c-2.0308-5.4696-4.2287-10.8028-6.5624-15.928l0.0356-0.0157l-0.0304-0.064c19.6568-9.6347,36.1248-24.2531,48.0304-42.6275  C170.76,50.912,178.9844,71.5059,178.9844,93.496z M149.7376,29.3412c-11.1692,17.7332-26.8187,31.8016-45.6072,41.0136  C93.72,49.4772,80.3476,30.2936,64.29,13.2004C73.6816,9.7628,83.4752,8,93.4904,8C114.29,8,134.1032,15.6044,149.7376,29.3412z   M56.4456,16.4884C72.8284,33.492,86.418,52.7032,96.9044,73.6796c-13.422,5.4572-27.59,8.2188-42.174,8.2188  c-15.3416,0-30.1972-3.0468-44.2028-9.0605C16.6309,48.2752,33.5236,27.5352,56.4456,16.4884z M8,93.496  c0-4.2181,0.3284-8.4616,0.9568-12.6704c14.544,6.0043,29.912,9.0728,45.7736,9.0728c15.76,0,31.0572-3.0504,45.55-8.9976  c2.2188,4.862,4.3016,9.9028,6.242,15.0944c-30.6715,10.146-55.824,32.0652-70.0955,61.0728C18.3016,140.8228,8,117.932,8,93.496z   M42.7756,162.252c13.2033-27.9784,37.1524-49.1444,66.4688-58.7756c7.668,22.84,11.6972,46.6252,11.994,70.8008  c-9.0488,3.1252-18.3712,4.7092-27.748,4.7092C75.0392,178.9864,57.5724,173.2108,42.7756,162.252z M129.1284,171.1379  c-0.592-23.8191-4.692-47.2451-12.218-69.7927c20.1908-5.0828,41.5184-4.4488,61.3365,1.8104  C174.8872,133.5884,156.4804,159.0116,129.1284,171.1379z"/></svg>